<svg width="20" height="20" viewBox="0 0 20 20" fill="none" xmlns="http://www.w3.org/2000/svg">
<path fill-rule="evenodd" clip-rule="evenodd" d="M7.61326 10.894C7.12527 11.3928 7.11761 12.1878 7.59589 12.6959L7.59431 12.6991L7.81856 12.9233C9.46409 14.5689 12.0998 14.5973 13.709 12.9865L18.8067 7.88879C20.4128 6.28274 20.3859 3.6423 18.742 1.99834L17.9966 1.25295C16.351 -0.392587 13.7169 -0.421013 12.1061 1.18978L10.8554 2.4421C10.6038 2.68659 10.4615 3.02232 10.4609 3.37316C10.4603 3.72401 10.6014 4.06022 10.8522 4.30556C11.0976 4.55636 11.4338 4.69746 11.7846 4.69686C12.1355 4.69627 12.4712 4.55403 12.7157 4.30241L13.6032 3.41489C14.4086 2.60949 15.7288 2.62528 16.55 3.44647C17.3712 4.26924 17.3854 5.58788 16.5816 6.3917L12.2135 10.7598C11.4586 11.5162 10.249 11.5478 9.42461 10.8688L9.41672 10.8782C8.9088 10.3985 8.1127 10.4055 7.61326 10.894ZM12.3801 9.10474C12.8712 8.6136 12.8744 7.81768 12.3974 7.30286L12.399 7.30128L12.1748 7.07703C10.5292 5.43307 7.89353 5.40465 6.28432 7.01386L1.18662 12.1116C-0.419433 13.7176 -0.392587 16.3581 1.25137 18.002L1.99676 18.7474C3.6423 20.3929 6.27642 20.4198 7.88721 18.8121L9.13795 17.5583C9.38957 17.3138 9.53181 16.978 9.53241 16.6272C9.533 16.2763 9.3919 15.9401 9.14111 15.6948C8.89577 15.444 8.55955 15.3029 8.20871 15.3035C7.85786 15.3041 7.52213 15.4463 7.27764 15.6979L6.39012 16.5855C5.58473 17.3909 4.26451 17.3751 3.44332 16.5539C2.62213 15.7311 2.60791 14.4125 3.41173 13.6086L7.77983 9.23897C8.54347 8.49169 9.7491 8.44458 10.5687 9.13001L10.5766 9.12053C11.0845 9.60026 11.8806 9.59329 12.3801 9.10474Z" fill="#F49C45"/>
</svg>
