<svg width="24" height="25" viewBox="0 0 24 25" fill="none" xmlns="http://www.w3.org/2000/svg">
<path d="M12.0034 0.665101C9.62989 0.664426 7.30948 1.36764 5.33564 2.68581C3.3618 4.00397 1.8232 5.87788 0.914429 8.07054C0.00565525 10.2632 -0.232471 12.6761 0.230167 15.0041C0.692804 17.3321 1.83542 19.4706 3.51352 21.1492C5.19161 22.8277 7.3298 23.971 9.65767 24.4343C11.9855 24.8976 14.3985 24.6601 16.5914 23.752C18.7843 22.8438 20.6587 21.3058 21.9774 19.3323C23.2961 17.3588 24 15.0386 24 12.6651C23.9973 9.48392 22.7326 6.43376 20.4835 4.18401C18.2344 1.93426 15.1846 0.66871 12.0034 0.665101ZM12.0034 23.2984C9.89937 23.2991 7.84239 22.6758 6.09267 21.5072C4.34294 20.3387 2.97907 18.6775 2.17358 16.7338C1.36809 14.79 1.15716 12.651 1.56747 10.5874C1.97778 8.52375 2.9909 6.62815 4.47869 5.14037C5.96647 3.65259 7.86207 2.63947 9.92571 2.22916C11.9894 1.81885 14.1283 2.02978 16.0721 2.83527C18.0158 3.64076 19.677 5.00463 20.8456 6.75435C22.0141 8.50408 22.6374 10.5611 22.6368 12.6651C22.6331 15.4841 21.5117 18.1867 19.5183 20.18C17.525 22.1734 14.8224 23.2948 12.0034 23.2984Z" fill="black"/>
<path d="M17.4633 11.8403H6.5573C6.37652 11.8403 6.20314 11.9122 6.07531 12.04C5.94749 12.1678 5.87567 12.3412 5.87567 12.522C5.87567 12.7027 5.94749 12.8761 6.07531 13.004C6.20314 13.1318 6.37652 13.2036 6.5573 13.2036H17.4633C17.6441 13.2036 17.8174 13.1318 17.9453 13.004C18.0731 12.8761 18.1449 12.7027 18.1449 12.522C18.1449 12.3412 18.0731 12.1678 17.9453 12.04C17.8174 11.9122 17.6441 11.8403 17.4633 11.8403Z" fill="black"/>
</svg>
