<svg width="24" height="25" viewBox="0 0 24 25" fill="none" xmlns="http://www.w3.org/2000/svg">
<path d="M12.0034 0.664826C9.62989 0.664152 7.30948 1.36737 5.33564 2.68553C3.3618 4.0037 1.8232 5.87761 0.914429 8.07026C0.00565525 10.2629 -0.232471 12.6758 0.230167 15.0038C0.692804 17.3318 1.83542 19.4703 3.51352 21.1489C5.19161 22.8275 7.3298 23.9707 9.65767 24.434C11.9855 24.8973 14.3985 24.6599 16.5914 23.7517C18.7843 22.8435 20.6587 21.3055 21.9774 19.332C23.2961 17.3586 24 15.0383 24 12.6648C23.9973 9.48365 22.7326 6.43349 20.4835 4.18374C18.2344 1.93398 15.1846 0.668436 12.0034 0.664826V0.664826ZM12.0034 23.2982C9.89937 23.2988 7.84239 22.6755 6.09267 21.507C4.34294 20.3384 2.97907 18.6772 2.17358 16.7335C1.36809 14.7897 1.15716 12.6508 1.56747 10.5871C1.97778 8.52348 2.99091 6.62788 4.47869 5.1401C5.96647 3.65232 7.86207 2.6392 9.92571 2.22888C11.9894 1.81857 14.1283 2.0295 16.0721 2.83499C18.0158 3.64049 19.677 5.00435 20.8456 6.75408C22.0141 8.50381 22.6374 10.5608 22.6368 12.6648C22.6331 15.4839 21.5117 18.1864 19.5183 20.1797C17.525 22.1731 14.8224 23.2946 12.0034 23.2982V23.2982Z" fill="#192635"/>
<path d="M17.3849 11.8435H12.6851V7.04141C12.6865 6.96536 12.6727 6.88981 12.6445 6.81915C12.6163 6.7485 12.5744 6.68417 12.5211 6.62992C12.4678 6.57566 12.4042 6.53257 12.3341 6.50316C12.2639 6.47375 12.1886 6.45861 12.1126 6.45862H11.891C11.7398 6.45952 11.595 6.52024 11.4884 6.62752C11.3817 6.7348 11.3219 6.87992 11.3219 7.03118V11.8435H6.62889C6.44811 11.8435 6.27474 11.9153 6.14691 12.0431C6.01908 12.1709 5.94727 12.3443 5.94727 12.5251C5.94727 12.7059 6.01908 12.8792 6.14691 13.0071C6.27474 13.1349 6.44811 13.2067 6.62889 13.2067H11.3219V17.8997C11.3219 18.0805 11.3937 18.2538 11.5215 18.3817C11.6493 18.5095 11.8227 18.5813 12.0035 18.5813C12.1843 18.5813 12.3577 18.5095 12.4855 18.3817C12.6133 18.2538 12.6851 18.0805 12.6851 17.8997V13.2067H17.3849C17.5657 13.2067 17.7391 13.1349 17.8669 13.0071C17.9947 12.8792 18.0665 12.7059 18.0665 12.5251C18.0665 12.3443 17.9947 12.1709 17.8669 12.0431C17.7391 11.9153 17.5657 11.8435 17.3849 11.8435Z" fill="#192635"/>
</svg>
