<svg width="64" height="49" viewBox="0 0 64 49" fill="none" xmlns="http://www.w3.org/2000/svg">
<path d="M53.6831 4.32422C49.5551 2.43623 45.1711 1.06023 40.5951 0.292236C40.019 1.28424 39.379 2.62822 38.931 3.68423C34.0639 2.98022 29.2318 2.98022 24.4318 3.68423C23.9838 2.62822 23.3118 1.28424 22.7677 0.292236C18.1598 1.06023 13.7758 2.43623 9.67664 4.32422C1.38866 16.5482 -0.851344 28.4841 0.268656 40.2601C5.77264 44.26 11.0847 46.6922 16.3039 48.2922C17.5839 46.5642 18.7359 44.7081 19.7279 42.7562C17.8399 42.0522 16.0479 41.1881 14.3199 40.1641C14.7679 39.8443 15.2159 39.4922 15.6319 39.1402C26.0639 43.9082 37.3631 43.9082 47.667 39.1402C48.115 39.4922 48.531 39.8443 48.979 40.1641C47.251 41.1881 45.4591 42.0522 43.571 42.7562C44.563 44.7081 45.7151 46.5642 46.9949 48.2922C52.211 46.6922 57.555 44.26 63.0302 40.2601C64.406 26.6282 60.851 14.7883 53.6831 4.32422ZM21.1679 32.9961C18.0318 32.9961 15.4718 30.1482 15.4718 26.6602C15.4718 23.1723 17.9678 20.3242 21.1679 20.3242C24.3358 20.3242 26.9277 23.1723 26.8637 26.6602C26.8637 30.1482 24.3358 32.9961 21.1679 32.9961ZM42.1951 32.9961C39.059 32.9961 36.4958 30.1482 36.4958 26.6602C36.4958 23.1723 38.995 20.3242 42.1951 20.3242C45.3631 20.3242 47.955 23.1723 47.891 26.6602C47.891 30.1482 45.3951 32.9961 42.1951 32.9961Z" fill="#082240"/>
</svg>
