<svg width="60" height="61" viewBox="0 0 60 61" fill="none" xmlns="http://www.w3.org/2000/svg">
<path d="M30 0.29248C38.151 0.29248 39.168 0.32248 42.366 0.47248C45.561 0.62248 47.736 1.12348 49.65 1.86748C51.63 2.62948 53.298 3.66148 54.966 5.32648C56.4915 6.82617 57.6719 8.64025 58.425 10.6425C59.166 12.5535 59.67 14.7315 59.82 17.9265C59.961 21.1245 60 22.1415 60 30.2925C60 38.4435 59.97 39.4605 59.82 42.6585C59.67 45.8535 59.166 48.0285 58.425 49.9425C57.674 51.9458 56.4934 53.7603 54.966 55.2585C53.4659 56.7834 51.6519 57.9637 49.65 58.7175C47.739 59.4585 45.561 59.9625 42.366 60.1125C39.168 60.2535 38.151 60.2925 30 60.2925C21.849 60.2925 20.832 60.2625 17.634 60.1125C14.439 59.9625 12.264 59.4585 10.35 58.7175C8.34698 57.9659 6.53258 56.7853 5.034 55.2585C3.50822 53.759 2.32779 51.9449 1.575 49.9425C0.831 48.0315 0.33 45.8535 0.18 42.6585C0.0389998 39.4605 0 38.4435 0 30.2925C0 22.1415 0.0299998 21.1245 0.18 17.9265C0.33 14.7285 0.831 12.5565 1.575 10.6425C2.32571 8.63902 3.50641 6.82444 5.034 5.32648C6.53301 3.80017 8.34728 2.61967 10.35 1.86748C12.264 1.12348 14.436 0.62248 17.634 0.47248C20.832 0.33148 21.849 0.29248 30 0.29248ZM30 15.2925C26.0217 15.2925 22.2064 16.8728 19.3934 19.6859C16.5803 22.4989 15 26.3142 15 30.2925C15 34.2707 16.5803 38.086 19.3934 40.8991C22.2064 43.7121 26.0217 45.2925 30 45.2925C33.9782 45.2925 37.7935 43.7121 40.6066 40.8991C43.4196 38.086 45 34.2707 45 30.2925C45 26.3142 43.4196 22.4989 40.6066 19.6859C37.7935 16.8728 33.9782 15.2925 30 15.2925ZM49.5 14.5425C49.5 13.5479 49.1049 12.5941 48.4016 11.8908C47.6984 11.1876 46.7446 10.7925 45.75 10.7925C44.7554 10.7925 43.8016 11.1876 43.0983 11.8908C42.3951 12.5941 42 13.5479 42 14.5425C42 15.537 42.3951 16.4909 43.0983 17.1941C43.8016 17.8974 44.7554 18.2925 45.75 18.2925C46.7446 18.2925 47.6984 17.8974 48.4016 17.1941C49.1049 16.4909 49.5 15.537 49.5 14.5425ZM30 21.2925C32.3869 21.2925 34.6761 22.2407 36.364 23.9285C38.0518 25.6163 39 27.9055 39 30.2925C39 32.6794 38.0518 34.9686 36.364 36.6564C34.6761 38.3443 32.3869 39.2925 30 39.2925C27.613 39.2925 25.3239 38.3443 23.636 36.6564C21.9482 34.9686 21 32.6794 21 30.2925C21 27.9055 21.9482 25.6163 23.636 23.9285C25.3239 22.2407 27.613 21.2925 30 21.2925Z" fill="#082240"/>
</svg>
