<svg width="60" height="61" viewBox="0 0 60 61" fill="none" xmlns="http://www.w3.org/2000/svg">
<path d="M59.9999 4.70425V55.8807C59.9999 57.0508 59.5351 58.1729 58.7077 59.0003C57.8803 59.8277 56.7582 60.2925 55.5881 60.2925H4.41164C3.24157 60.2925 2.11942 59.8277 1.29205 59.0003C0.464688 58.1729 -0.00012207 57.0508 -0.00012207 55.8807L-0.00012207 4.70425C-0.00012207 3.53417 0.464688 2.41202 1.29205 1.58466C2.11942 0.75729 3.24157 0.29248 4.41164 0.29248L55.5881 0.29248C56.7582 0.29248 57.8803 0.75729 58.7077 1.58466C59.5351 2.41202 59.9999 3.53417 59.9999 4.70425ZM17.6469 23.2337H8.82341V51.469H17.6469V23.2337ZM18.4411 13.5278C18.4457 12.8603 18.3188 12.1985 18.0677 11.5801C17.8166 10.9617 17.4461 10.3989 16.9775 9.92364C16.5088 9.44842 15.9511 9.07016 15.3363 8.81047C14.7214 8.55079 14.0614 8.41475 13.394 8.41013H13.2352C11.8779 8.41013 10.5762 8.94931 9.61645 9.90905C8.6567 10.8688 8.11753 12.1705 8.11753 13.5278C8.11753 14.8851 8.6567 16.1868 9.61645 17.1465C10.5762 18.1062 11.8779 18.6454 13.2352 18.6454C13.9026 18.6618 14.5668 18.5466 15.1897 18.3062C15.8126 18.0659 16.3821 17.7051 16.8655 17.2446C17.349 16.7841 17.737 16.2329 18.0073 15.6224C18.2776 15.0119 18.425 14.3541 18.4411 13.6866V13.5278ZM51.1764 34.316C51.1764 25.8278 45.7764 22.5278 40.4116 22.5278C38.6551 22.4398 36.9063 22.8139 35.3395 23.6128C33.7727 24.4117 32.4427 25.6074 31.4822 27.0807H31.2352V23.2337H22.9411V51.469H31.7646V36.4513C31.637 34.9132 32.1215 33.387 33.1128 32.2041C34.1041 31.0211 35.522 30.2771 37.0587 30.1337H37.394C40.1999 30.1337 42.2822 31.8984 42.2822 36.3454V51.469H51.1058L51.1764 34.316Z" fill="#082240"/>
</svg>
