<svg width="53" height="61" viewBox="0 0 53 61" fill="none" xmlns="http://www.w3.org/2000/svg">
<path d="M41.4652 9.69569C39.2659 7.1743 37.9436 3.88662 37.9436 0.29248H35.1878C35.8975 4.22097 38.236 7.59226 41.4652 9.69569Z" fill="#082240"/>
<path d="M15.9651 30.0068C11.1909 30.0068 7.30749 33.8936 7.30749 38.6718C7.30749 42.0014 9.20047 44.8988 11.9564 46.3477C10.9264 44.9267 10.314 43.1854 10.314 41.2908C10.314 36.5126 14.1974 32.6258 18.9717 32.6258C19.8625 32.6258 20.7254 32.779 21.5328 33.0298V22.4982C20.6976 22.3867 19.8486 22.3169 18.9717 22.3169C18.8186 22.3169 18.6794 22.3309 18.5262 22.3309V30.4108C17.705 30.16 16.856 30.0068 15.9651 30.0068Z" fill="#082240"/>
<path d="M49.2733 14.3207V22.3309C43.9284 22.3309 38.9732 20.6175 34.9365 17.7198V38.6857C34.9365 49.1478 26.4321 57.6735 15.9649 57.6735C11.9284 57.6735 8.17024 56.3918 5.09413 54.2326C8.55996 57.952 13.5012 60.2925 18.9715 60.2925C29.4246 60.2925 37.9432 51.7807 37.9432 41.3047V20.3388C41.9796 23.2365 46.9348 24.9499 52.2798 24.9499V14.6413C51.2358 14.6413 50.2336 14.5297 49.2733 14.3207Z" fill="#082240"/>
<path d="M34.9365 38.6857V17.7198C38.9732 20.6175 43.9284 22.3309 49.2733 22.3309V14.3207C46.1832 13.6661 43.4695 11.9944 41.4652 9.69569C38.2358 7.59226 35.911 4.22097 35.1732 0.29248H27.6291L27.6152 41.625C27.4482 46.2501 23.6343 49.9697 18.9715 49.9697C16.0763 49.9697 13.5291 48.5348 11.9423 46.3616C9.18633 44.8988 7.29335 42.0153 7.29335 38.6857C7.29335 33.9075 11.1768 30.0207 15.951 30.0207C16.8418 30.0207 17.7048 30.1739 18.5121 30.4247V22.3448C8.26769 22.5678 -0.000244141 30.9819 -0.000244141 41.3047C-0.000244141 46.2919 1.93451 50.8335 5.09413 54.2326C8.17024 56.3918 11.9284 57.6735 15.9649 57.6735C26.4182 57.6735 34.9365 49.1478 34.9365 38.6857Z" fill="#082240"/>
</svg>
