<svg width="60" height="50" viewBox="0 0 60 50" fill="none" xmlns="http://www.w3.org/2000/svg">
<path d="M60 6.06604C57.7935 7.04376 55.4232 7.70437 52.9314 8.00297C55.4734 6.48091 57.4236 4.06569 58.3432 1.19068C55.965 2.60176 53.3304 3.62704 50.5267 4.17667C48.2806 1.78788 45.0832 0.292236 41.5423 0.292236C34.7459 0.292236 29.2337 5.80444 29.2337 12.6062C29.2337 13.568 29.3447 14.5035 29.5508 15.4072C19.3165 14.8919 10.2502 9.99012 4.17775 2.54362C3.12076 4.36693 2.51299 6.48091 2.51299 8.7323C2.51299 13.0025 4.68775 16.7733 7.9882 18.9798C5.96935 18.9137 4.07205 18.3615 2.41258 17.4392V17.5978C2.41258 23.5619 6.65375 28.5376 12.2875 29.6686C11.2517 29.9487 10.1656 30.0967 9.04519 30.0967C8.25245 30.0967 7.4782 30.0227 6.72774 29.88C8.29472 34.7686 12.8398 38.3306 18.2278 38.4258C14.013 41.7289 8.70431 43.6975 2.93843 43.6975C1.94486 43.6975 0.964503 43.6394 0 43.5257C5.44878 47.0217 11.9176 49.0564 18.8673 49.0564C41.5133 49.0564 53.8933 30.3002 53.8933 14.0331C53.8933 13.5046 53.88 12.9708 53.8563 12.4423C56.2609 10.7036 58.3485 8.5394 59.9947 6.07397L60 6.06604Z" fill="#082240"/>
</svg>
