<svg width="66" height="47" viewBox="0 0 66 47" fill="none" xmlns="http://www.w3.org/2000/svg">
<path fill-rule="evenodd" clip-rule="evenodd" d="M58.7849 1.67222C61.6263 2.43284 63.8595 4.6658 64.6199 7.50726C65.9945 12.6523 66 23.3933 66 23.3933C66 23.3933 66 34.1344 64.6199 39.2795C63.8595 42.1209 61.6263 44.3538 58.7849 45.1143C53.64 46.4944 32.9999 46.4944 32.9999 46.4944C32.9999 46.4944 12.36 46.4944 7.215 45.1143C4.37357 44.3538 2.1406 42.1209 1.37998 39.2795C4.13079e-07 34.1344 0 23.3933 0 23.3933C0 23.3933 4.13079e-07 12.6523 1.37998 7.50726C2.1406 4.6658 4.37357 2.43284 7.215 1.67222C12.36 0.292237 32.9999 0.292236 32.9999 0.292236C32.9999 0.292236 53.64 0.292237 58.7849 1.67222ZM43.5402 23.3942L26.3937 33.2931V13.4953L43.5402 23.3942Z" fill="#082240"/>
</svg>
